<svg xmlns="http://www.w3.org/2000/svg" xmlns:xlink="http://www.w3.org/1999/xlink" viewBox="0 0 1788.54 549.3"><defs><style>.cls-1{fill:url(#radial-gradient);}.cls-2{fill:url(#radial-gradient-2);}.cls-3{fill:url(#radial-gradient-3);}</style><radialGradient id="radial-gradient" cx="352.49" cy="409.02" r="255.97" gradientUnits="userSpaceOnUse"><stop offset="0" stop-color="#ff931e"/><stop offset="1" stop-color="red"/></radialGradient><radialGradient id="radial-gradient-2" cx="470.16" cy="520.33" r="181.75" xlink:href="#radial-gradient"/><radialGradient id="radial-gradient-3" cx="680.63" cy="508.75" r="879.98" gradientUnits="userSpaceOnUse"><stop offset="0" stop-color="#ff931e"/><stop offset="1" stop-color="#ff1d25"/></radialGradient></defs><g id="Layer_1" data-name="Layer 1"><path class="cls-1" d="M337.57,609.18c24.05,20.59,6.18,60.38-25.07,55.31A256.3,256.3,0,0,1,171.88,592.4C67.07,487.59,71.47,314.9,185.27,215.8c95.52-83.18,240.12-83.66,336.13-1.05a256.83,256.83,0,0,1,86.68,154.09c5,31.08-34.37,49.09-55.09,25.38q-4.28-4.89-9.2-9.83a157.44,157.44,0,0,0-12.57-11.28c-55.08-44.33-135.15-44.44-190.39-.27a152.64,152.64,0,0,0-12.9,227.41Q332.72,605,337.57,609.18Z" transform="translate(-96.46 -153.1)"/><path class="cls-2" d="M647.25,647C645.84,626.85,632,609.24,613,602.22a50.9,50.9,0,0,0-10.37-2.66c-16-2.31-31-9.1-42.43-20.53h0c-17.36-17.35-24.05-42.23-19.36-66.31a106.77,106.77,0,0,0-38.2-104.12c-38.49-31-94.76-31-133.33-.19a107,107,0,0,0,86.53,189c24.58-4.69,49.91,2.44,67.6,20.13l1,1a72.9,72.9,0,0,1,20.19,40,49.83,49.83,0,0,0,3.05,10.8c7.44,18.46,24.93,31.8,44.8,33A51.68,51.68,0,0,0,647.25,647Z" transform="translate(-96.46 -153.1)"/></g><g id="Layer_2" data-name="Layer 2"><path class="cls-3" d="M983.46,291.65a21.71,21.71,0,0,0-21.7,21.7v131a4.3,4.3,0,0,1-6.93,3.41l-196-151.53a21.75,21.75,0,0,0-13.27-4.53h-9a21.71,21.71,0,0,0-21.7,21.7v177a21.7,21.7,0,0,0,43.4,0V359.37a4.31,4.31,0,0,1,6.94-3.4l196,151.52A21.69,21.69,0,0,0,974.48,512h9a21.7,21.7,0,0,0,21.7-21.69v-177A21.71,21.71,0,0,0,983.46,291.65Z" transform="translate(-96.46 -153.1)"/><path class="cls-3" d="M1218.63,327.37h-124c-26.91,0-60.39,18-60.42,55.24V457c0,37.28,33.5,55.24,60.42,55.24h124c26.91,0,59.86-18,59.9-55.24V382.61C1278.53,345.33,1245.54,327.37,1218.63,327.37ZM1235.21,457c0,8.25-3.73,19.44-22,19.44H1100.1c-18.27,0-22.53-11.19-22.53-19.44V382.61c0-8.24,4.26-19.44,22.52-19.44h113.12c18.27,0,22,11.2,22,19.44Z" transform="translate(-96.46 -153.1)"/><path class="cls-3" d="M1521.62,327.37h-.1A21.65,21.65,0,0,0,1499.87,349V456.78c0,8.25-3.74,19.44-22,19.44H1371.31c-18.26,0-22.53-11.2-22.53-19.44V349a21.65,21.65,0,1,0-43.29,0V456.78c0,37.28,33.51,55.24,60.42,55.24h95.7a67.1,67.1,0,0,0,32-8.3,4.28,4.28,0,0,1,6.31,3.79v28.36c.15,4.13-3.67,15.32-21.94,15.32H1374.6c-11,0-16.75-4.07-19.57-9.12a20.39,20.39,0,0,0-17.88-10.32c-17.57,0-27.22,20.58-15.89,34,12,14.27,31.16,21.23,47.92,21.23h114.2c26.91,0,59.85-18,59.89-55.24V349A21.65,21.65,0,0,0,1521.62,327.37Z" transform="translate(-96.46 -153.1)"/><path class="cls-3" d="M1752.76,327.37h-95.7a67.1,67.1,0,0,0-32,8.3,4.28,4.28,0,0,1-6.31-3.79V293.82a21.7,21.7,0,0,0-43.39,0v196.5a21.7,21.7,0,0,0,21.69,21.7h17.4a4.31,4.31,0,0,0,4.3-4.31,4.28,4.28,0,0,1,6.31-3.79,67.1,67.1,0,0,0,32,8.3h95.7c26.92,0,60.39-18,60.43-55.24V382.61C1813.19,345.33,1779.68,327.37,1752.76,327.37ZM1769.82,457c0,8.25-4.27,19.44-22.53,19.44H1640.74c-18.27,0-22-11.19-22-19.44V382.61c0-8.25,3.74-19.44,22-19.44h106.55c18.26,0,22.53,11.2,22.53,19.44Z" transform="translate(-96.46 -153.1)"/><path class="cls-3" d="M1867.1,327.45h-7.59a17.9,17.9,0,0,0-17.9,17.9v145a21.7,21.7,0,1,0,43.39,0v-145A17.9,17.9,0,0,0,1867.1,327.45Z" transform="translate(-96.46 -153.1)"/><circle class="cls-3" cx="1766.84" cy="140.72" r="21.7"/></g></svg>